#!OML:ASF Y:\EmotionMaleHayes\Project 1\Capture day 1\Session 1\Male1.ASF
:FULLY-SPECIFIED
:DEGREES
1215
root 31.7095 16.9351 2.62615 351.292 99.653 359.03
lowerback -6.02513 -0.697721 1.11817
upperback -0.789409 -0.996345 0.52189
thorax 2.55418 -0.478853 -0.171009
lowerneck -25.5682 -0.152172 2.69752
upperneck 35.3398 -0.390589 -0.881415
head 17.2377 0.376817 -0.862406
rclavicle -3.23025e-015 -6.36111e-015
rhumerus 30.9885 24.1345 -47.0768
rradius 40.6906
rwrist -0.105564
rhand 0.755564 -27.4912
rfingers 7.12502
rthumb 26.3139 -55.686
lclavicle -3.23025e-015 -6.36111e-015
lhumerus 34.7721 -21.7341 38.0967
lradius 43.398
lwrist 2.12401
lhand 5.17754 -26.796
lfingers 7.12502
lthumb 30.5393 0.692276
rfemur 24.2776 -0.456868 22.2178
rtibia 9.02113
rfoot -19.8489 -5.12877
rtoes 7.86459
lfemur 2.9626 -2.84773 -3.49618
ltibia 27.8205
lfoot -15.9254 9.21417
ltoes -8.81306
1216
root 31.7724 16.9382 2.60954 351.086 99.4316 358.894
lowerback -5.93741 -0.693964 1.08014
upperback -0.721005 -0.989179 0.491535
thorax 2.57579 -0.475981 -0.179691
lowerneck -25.7435 -0.283712 2.64781
upperneck 35.408 -0.586512 -0.868875
head 17.3112 0.291852 -0.892836
rclavicle 2.21148e-014 -9.14409e-015
rhumerus 30.999 24.2674 -47.1996
rradius 40.6857
rwrist -0.10303
rhand 0.735516 -27.4524
rfingers 7.12502
rthumb 26.2947 -55.6501
lclavicle 2.21148e-014 -9.14409e-015
lhumerus 34.7438 -21.745 37.9093
lradius 43.3888
lwrist 2.1522
lhand 5.20327 -26.7504
lfingers 7.12502
lthumb 30.5638 0.73331
rfemur 24.5918 -0.378387 22.1549
rtibia 8.99773
rfoot -19.7917 -4.76086
rtoes 7.39219
lfemur 2.79811 -2.77457 -3.53545
ltibia 27.1265
lfoot -15.8114 9.21872
ltoes -9.57796
1217
root 31.8323 16.9437 2.59537 350.919 99.1969 358.806
lowerback -5.87419 -0.681946 0.994316
upperback -0.633495 -0.968973 0.472156
thorax 2.63189 -0.467012 -0.149736
lowerneck -24.8686 0.114115 2.888
upperneck 34.7856 -0.118374 -0.73419
head 16.7888 0.522518 -0.767123
rclavicle 9.49197e-015 3.97569e-015
rhumerus 31.1278 24.4897 -47.1076
rradius 40.7191
rwrist -0.245595
rhand 0.737459 -27.3627
rfingers 7.12502
rthumb 26.2965 -55.5601
lclavicle 9.49197e-015 3.97569e-015
lhumerus 34.7113 -21.7693 37.7528
lradius 43.3687
lwrist 2.37018
lhand 5.09861 -26.7813
lfingers 7.12502
lthumb 30.464 0.720987
rfemur 24.8954 -0.110078 22.2431
rtibia 8.92829
rfoot -19.625 -4.71714
rtoes 7.58994
lfemur 2.58751 -2.68248 -3.53561
ltibia 26.4481
lfoot -15.7434 9.22455
ltoes -10.1943
1218
root 31.8858 16.9509 2.57752 350.613 99.0195 358.489
lowerback -5.81682 -0.660681 0.913458
upperback -0.571255 -0.935875 0.441874
thorax 2.66501 -0.451581 -0.132635
lowerneck -25.1394 0.128691 2.8718
upperneck 34.9634 -0.120134 -0.677715
head 16.946 0.531539 -0.740475
rclavicle -1.11319e-014 -1.23246e-014
rhumerus 31.2308 24.6277 -46.9799
rradius 40.7884
rwrist -0.316133
rhand 0.84773 -27.2935
rfingers 7.12502
rthumb 26.4021 -55.4751
lclavicle -1.11319e-014 -1.23246e-014
lhumerus 34.6767 -21.7818 37.719
lradius 43.3732
lwrist 2.58544
lhand 4.89731 -26.8239
lfingers 7.12502
lthumb 30.272 0.713814
rfemur 24.9314 -0.0543176 22.1218
rtibia 9.15697
rfoot -19.3342 -4.66344
rtoes 7.38675
lfemur 2.16884 -2.59774 -3.63016
ltibia 25.9691
lfoot -15.6145 9.15391
ltoes -10.9373
1219
root 31.9334 16.9584 2.55982 350.665 98.8002 358.447
lowerback -5.72464 -0.638729 0.871085
upperback -0.543315 -0.9041 0.453117
thorax 2.64331 -0.436643 -0.0938351
lowerneck -25.5083 0.00853578 2.76978
upperneck 35.3172 -0.221096 -0.774448
head 17.2167 0.469959 -0.789708
rclavicle 1.01877e-014 -5.56597e-015
rhumerus 31.3134 24.6471 -47.0089
rradius 40.7704
rwrist -0.230818
rhand 0.818498 -27.2459
rfingers 7.12502
rthumb 26.3741 -55.4316
lclavicle 1.01877e-014 -5.56597e-015
lhumerus 34.6717 -21.674 37.771
lradius 43.3765
lwrist 2.55178
lhand 4.9549 -26.7193
lfingers 7.12502
lthumb 30.327 0.808303
rfemur 24.7886 -0.0248831 22.0412
rtibia 9.57375
rfoot -19.1405 -4.70231
rtoes 5.9227
lfemur 1.58478 -2.43933 -3.64172
ltibia 25.5888
lfoot -15.3165 9.14599
ltoes -12.0705
1220
root 31.9787 16.9671 2.54315 351.638 98.5371 359.29
lowerback -5.59707 -0.590342 0.994376
upperback -0.540308 -0.846329 0.464054
thorax 2.57381 -0.407041 -0.145733
lowerneck -25.2887 0.0778073 2.51293
upperneck 35.0909 -0.189687 -0.29178
head 17.0485 0.515669 -0.520295
rclavicle -2.71341e-014 2.78299e-015
rhumerus 31.2821 24.5681 -47.193
rradius 40.7254
rwrist -0.0626821
rhand 0.675969 -27.2193
rfingers 7.12502
rthumb 26.2377 -55.4254
lclavicle -2.71341e-014 2.78299e-015
lhumerus 34.7788 -21.6262 37.6934
lradius 43.3949
lwrist 2.51889
lhand 5.02788 -26.6889
lfingers 7.12502
lthumb 30.3966 0.825848
rfemur 24.6737 0.137891 22.2254
rtibia 9.82711
rfoot -19.0037 -4.86183
rtoes 4.59169
lfemur 0.947605 -2.28819 -3.47978
ltibia 25.1622
lfoot -15.1567 9.13647
ltoes -11.7669
1221
root 32.0327 16.9745 2.52014 350.84 98.3843 358.42
lowerback -5.56054 -0.568906 0.885968
upperback -0.487418 -0.809902 0.367018
thorax 2.60825 -0.389964 -0.181869
lowerneck -25.4957 0.0512347 2.76981
upperneck 35.3068 -0.199809 -0.666241
head 17.2096 0.494321 -0.73629
rclavicle 6.21202e-015 -1.19271e-015
rhumerus 31.2981 24.6106 -47.223
rradius 40.769
rwrist -0.0552568
rhand 0.664512 -27.2918
rfingers 7.12502
rthumb 26.2267 -55.4995
lclavicle 6.21202e-015 -1.19271e-015
lhumerus 34.8384 -21.4917 37.6751
lradius 43.4691
lwrist 2.00536
lhand 5.31848 -26.814
lfingers 7.12502
lthumb 30.6737 0.649118
rfemur 24.7937 0.214468 21.9945
rtibia 9.83415
rfoot -18.812 -4.7582
rtoes 4.36053
lfemur 0.435553 -2.27229 -3.73369
ltibia 24.7433
lfoot -15.1853 9.00949
ltoes -10.186
1222
root 32.092 16.98 2.4925 350.667 98.1999 358.233
lowerback -5.49452 -0.548673 0.881578
upperback -0.442364 -0.782291 0.332332
thorax 2.61751 -0.37637 -0.212533
lowerneck -25.3622 0.0946789 2.93738
upperneck 35.1355 -0.078235 -1.0019
head 17.0888 0.508269 -0.890443
rclavicle -6.41081e-015 1.35174e-014
rhumerus 31.3962 24.7907 -47.0515
rradius 40.8269
rwrist -0.167947
rhand 0.735794 -27.3628
rfingers 7.12502
rthumb 26.2949 -55.5604
lclavicle -6.41081e-015 1.35174e-014
lhumerus 34.8206 -21.5476 37.6596
lradius 43.3742
lwrist 2.48278
lhand 5.0236 -26.9092
lfingers 7.12502
lthumb 30.3925 0.606258
rfemur 24.9503 0.22588 21.8256
rtibia 9.88033
rfoot -18.5219 -4.52309
rtoes 4.59634
lfemur 0.0810076 -2.18512 -3.84866
ltibia 24.1911
lfoot -14.8192 8.86382
ltoes -9.79921
1223
root 32.1459 16.986 2.4653 352.865 97.9493 360.391
lowerback -5.32855 -0.518008 1.20894
upperback -0.439768 -0.760562 0.398063
thorax 2.52409 -0.362706 -0.325149
lowerneck -25.4582 0.085453 2.83727
upperneck 35.2691 -0.0994139 -0.86366
head 17.1822 0.511042 -0.815776
rclavicle -1.55549e-014 6.75868e-015
rhumerus 31.5067 24.9088 -46.965
rradius 40.813
rwrist -0.188804
rhand 0.711253 -27.3269
rfingers 7.12502
rthumb 26.2715 -55.528
lclavicle -1.55549e-014 6.75868e-015
lhumerus 34.7851 -21.4357 37.741
lradius 43.2194
lwrist 2.28009
lhand 5.04585 -26.9491
lfingers 7.12502
lthumb 30.4137 0.562506
rfemur 24.9639 0.238052 22.0805
rtibia 10.0073
rfoot -18.1782 -4.3797
rtoes 5.08962
lfemur -0.350584 -1.9786 -3.51382
ltibia 23.5973
lfoot -14.2005 8.68068
ltoes -11.0449
1224
root 32.2016 16.9946 2.43803 353.043 97.7214 360.525
lowerback -5.23503 -0.480234 1.2721
upperback -0.408819 -0.712184 0.342263
thorax 2.50278 -0.338069 -0.413623
lowerneck -25.2088 0.249775 3.03327
upperneck 35.1724 0.0726466 -0.859471
head 17.0766 0.608574 -0.809242
rclavicle -8.24956e-015 3.18055e-015
rhumerus 31.5808 24.9809 -47.0049
rradius 40.7883
rwrist -0.204268
rhand 0.603782 -27.3888
rfingers 7.12502
rthumb 26.1686 -55.6052
lclavicle -8.24956e-015 3.18055e-015
lhumerus 34.7685 -21.3482 37.7358
lradius 43.2657
lwrist 1.97885
lhand 5.23467 -26.893
lfingers 7.12502
lthumb 30.5938 0.585128
rfemur 25.0911 0.323562 22.0053
rtibia 9.98894
rfoot -17.8681 -4.3153
rtoes 5.14022
lfemur -0.717612 -1.87156 -3.5769
ltibia 22.9658
lfoot -13.9237 8.38761
ltoes -10.33
